<?xml version="1.0" encoding="utf-8"?>
<!-- Generator: Adobe Illustrator 22.1.0, SVG Export Plug-In . SVG Version: 6.00 Build 0)  -->
<svg version="1.1" id="Layer_1" xmlns="http://www.w3.org/2000/svg" xmlns:xlink="http://www.w3.org/1999/xlink" x="0px" y="0px"
	 viewBox="0 0 229.5 205.8" style="enable-background:new 0 0 229.5 205.8;" xml:space="preserve">
<style type="text/css">
	.st0{fill:#FF6464;}
	.st1{fill:#D2555A;}
</style>
<path class="st0" d="M0,63.3C0,28.3,28.2,0,62.9,0c17.2,0,32.8,7,44.2,18.3c4.2,4.2,11.1,4.2,15.3,0C133.8,7,149.3,0,166.6,0
	c34.8,0,62.9,28.3,62.9,63.3l0,0c0,65.4-84.2,124.8-108.3,140.6c-3.9,2.5-8.9,2.5-12.8,0C84.2,188.1,0,128.7,0,63.3"/>
<path class="st1" d="M88.5,5.5C80.7,2,72.1,0,62.9,0C28.2,0,0,28.3,0,63.3c0,65.4,84.2,124.8,108.3,140.6c2,1.3,4.2,1.9,6.4,1.9
	C28.8,88.4,59.4,22.7,88.5,5.5z"/>
</svg>
