<?xml version="1.0" encoding="utf-8"?>
<!-- Generator: Adobe Illustrator 22.1.0, SVG Export Plug-In . SVG Version: 6.00 Build 0)  -->
<svg version="1.1" id="Layer_1" xmlns="http://www.w3.org/2000/svg" xmlns:xlink="http://www.w3.org/1999/xlink" x="0px" y="0px"
	 viewBox="0 0 230.1 247.2" style="enable-background:new 0 0 230.1 247.2;" xml:space="preserve">
<style type="text/css">
	.st0{fill:#515262;}
	.st1{fill:#464655;}
</style>
<path class="st0" d="M119.5,1.3c-2.8-1.7-6.2-1.7-9,0C89.3,14.2,0,72.7,0,139.9c0,34.9,28.2,63.2,63.1,63.2c11.4,0,22.1-3,31.3-8.3
	c2.6-1.5,5.7,1.2,4.7,4.1c-4.9,13.7-11.9,26.4-20.5,37.8c-3.3,4.3-0.1,10.6,5.3,10.6h63.1c5.4,0,8.6-6.3,5.3-10.6
	c-8.6-11.2-15.5-23.8-20.4-37.3c-1-2.9,2-5.6,4.7-4.1c9,5,19.4,7.9,30.5,7.9c34.8,0,63.1-28.3,63.1-63.2
	C230.1,72.7,140.8,14.2,119.5,1.3z"/>
<g>
	<path class="st1" d="M89,197.5c-70.9-39.3-4.3-157,26.7-197.4c-1.8-0.1-3.5,0.2-5.1,1.2C89.3,14.2,0,72.7,0,139.9
		c0,34.9,28.2,63.2,63.1,63.2C72.3,203.1,81.1,201,89,197.5z"/>
	<path class="st1" d="M103.2,237.9c4.1-33.9,3.9-43.6-6.5-43.6c1.8,0.4,3.2,2.3,2.5,4.4c-4.9,13.7-11.9,26.4-20.5,37.8
		c-3.3,4.3-0.1,10.6,5.3,10.6h23.9C102.9,247.2,102.8,241.3,103.2,237.9z"/>
</g>
</svg>
