<?xml version="1.0" encoding="utf-8"?>
<!-- Generator: Adobe Illustrator 22.1.0, SVG Export Plug-In . SVG Version: 6.00 Build 0)  -->
<svg version="1.1" id="Layer_1" xmlns="http://www.w3.org/2000/svg" xmlns:xlink="http://www.w3.org/1999/xlink" x="0px" y="0px"
	 viewBox="0 0 220.7 220.7" style="enable-background:new 0 0 220.7 220.7;" xml:space="preserve">
<style type="text/css">
	.st0{fill:#515262;}
	.st1{fill:#464655;}
</style>
<path class="st0" d="M177.1,89.1c-19.1-1.1-35.9,9.5-43.9,25.2c-1.8,3.5-4.7,6.2-8.4,7.4c0,0-0.1,0-0.1,0c-3.1,1-6.3-1.6-5.8-4.9
	c1.1-7.2,2.8-14.2,5-21c1.2-3.7,3.9-6.6,7.4-8.4c15.8-8,26.4-24.8,25.3-43.9C155.2,20.1,135.7,1,112.3,0C85.8-1,64.1,20.1,64.1,46.3
	c0,18,10.3,33.6,25.4,41.3c3.4,1.7,6.1,4.6,7.3,8.3c2.3,6.8,4,13.8,5.1,21c0.5,3.3-2.7,6-5.8,4.9c0,0-0.1,0-0.1,0
	c-3.7-1.2-6.7-4-8.4-7.4c-8-15.7-24.8-26.3-43.9-25.2C20.1,90.4,1,109.9,0,133.3c-1.1,26.4,20,48.2,46.2,48.2
	c18,0,33.5-10.3,41.2-25.3c1.8-3.5,4.7-6.2,8.5-7.5c0,0,0.1,0,0.1,0c3.2-1,6.3,1.6,5.8,4.9c-3.3,22-12.3,42.1-25.5,58.7
	c-2.6,3.3-0.2,8.2,4.1,8.2h59.8c4.2,0,6.7-4.9,4.1-8.2c-13.2-16.7-22.2-36.8-25.5-58.7c-0.5-3.3,2.7-6,5.8-4.9c0,0,0.1,0,0.1,0
	c3.7,1.2,6.7,4,8.5,7.5c7.6,15,23.2,25.3,41.2,25.3c26.2,0,47.3-21.8,46.2-48.2C219.7,109.9,200.6,90.4,177.1,89.1z"/>
<g>
	<path class="st1" d="M30.5,133.3c0.8-19.1,13.6-35.6,31-41.7c-5.6-2-11.6-2.9-18-2.5C20.1,90.4,1,109.9,0,133.3
		c-1.1,26.4,20,48.2,46.2,48.2c5.4,0,10.5-0.9,15.3-2.6C42.9,172.4,29.7,154.4,30.5,133.3z"/>
	<path class="st1" d="M100.1,76.6c-2.2-7.4-5.6-22-5.6-30.3c0-22.9,13-37.3,31-43.6c-4.2-1.5-8.7-2.4-13.3-2.6
		C85.8-1,64.1,20.1,64.1,46.3c0,17.3,9.5,32.3,23.5,40.2l0,0c0.6,0.4,1.3,0.7,1.9,1c3.4,1.7,6.1,4.6,7.3,8.3c2.3,6.8,4,13.8,5.1,21
		c0.4,2.8-1.8,5.2-4.5,5.1l0,0c1.1,0.4,7.8,1.1,9.2-3.3C107.9,114.4,105.7,95.4,100.1,76.6z"/>
	<path class="st1" d="M177.1,89.1c-19.1-1.1-35.9,9.5-43.9,25.2c-1.8,3.5-4.7,6.2-8.4,7.4c0,0-1.1,0.3-1.5,0.3l0,0
		c0,0,17.2,2.4,31-15.9c8.1-10.8,16.9-15.2,28-16.4C180.6,89.4,178.9,89.2,177.1,89.1z"/>
	<path class="st1" d="M177.1,181.4c-19.1,1.1-35.9-9.5-43.9-25.2c-1.8-3.5-4.7-6.2-8.4-7.4c0,0-1.1-0.3-1.5-0.3l0,0
		c0,0,17.2-2.4,31,15.9c8.1,10.8,16.9,15.2,28,16.4C180.6,181.1,178.9,181.3,177.1,181.4z"/>
	<path class="st1" d="M98.9,212.4c5.9-14.8,11.8-56.1,1.8-62.4c0,0,1.4,2.3,1.2,3.7c-3.3,22-12.3,42.1-25.5,58.7
		c-2.6,3.3-0.2,8.2,4.1,8.2H103C98.7,220.7,97.3,216.4,98.9,212.4z"/>
</g>
</svg>
