<?xml version="1.0" encoding="utf-8"?>
<!-- Generator: Adobe Illustrator 22.1.0, SVG Export Plug-In . SVG Version: 6.00 Build 0)  -->
<svg version="1.1" id="Layer_1" xmlns="http://www.w3.org/2000/svg" xmlns:xlink="http://www.w3.org/1999/xlink" x="0px" y="0px"
	 viewBox="0 0 238.3 238.4" style="enable-background:new 0 0 238.3 238.4;" xml:space="preserve">
<style type="text/css">
	.st0{fill:#FF6464;}
	.st1{fill:#D2555A;}
</style>
<path class="st0" d="M125.8,3.3c28.6,37,72.2,80.6,109.2,109.2c4.4,3.4,4.4,10,0,13.4c-37,28.6-80.6,72.2-109.2,109.2
	c-3.4,4.4-10,4.4-13.4,0c-28.6-37-72.2-80.6-109.2-109.2c-4.4-3.4-4.4-10,0-13.4c37-28.6,80.6-72.2,109.2-109.2
	C115.9-1.1,122.4-1.1,125.8,3.3z"/>
<path class="st1" d="M118.1,235.1c-13.2-37-33.3-80.6-50.4-109.2c-2-3.4-2-10,0-13.4c17.1-28.6,37.2-72.2,50.4-109.2
	c0.7-1.8,2-2.6,3.1-3c-3.1-0.8-6.6,0.2-8.8,3C83.9,40.3,40.3,83.9,3.3,112.5c-4.4,3.4-4.4,10,0,13.4c37,28.6,80.6,72.2,109.2,109.2
	c2.2,2.8,5.7,3.8,8.8,3C120.1,237.7,118.8,236.9,118.1,235.1z"/>
</svg>
